<?xml version="1.0" encoding="UTF-8"?>
<svg width="15px" height="15px" viewBox="0 0 15 15" version="1.1" xmlns="http://www.w3.org/2000/svg" xmlns:xlink="http://www.w3.org/1999/xlink">
    <!-- Generator: sketchtool 63.1 (101010) - https://sketch.com -->
    <title>C5F2D718-4FE4-4213-947E-AC4C114E6DF4@1.5x</title>
    <desc>Created with sketchtool.</desc>
    <g id="Page-1" stroke="none" stroke-width="1" fill="none" fill-rule="evenodd">
        <g id="04-Iconography-L4YC-" transform="translate(-528.000000, -724.000000)" fill="#1AADDF" fill-rule="nonzero">
            <path d="M542.779742,737.760491 L539.179176,734.216269 C540.079317,733.102647 540.563264,731.727566 540.563264,730.2847 C540.563264,728.609425 539.905096,727.030988 538.724266,725.839897 C537.533756,724.648806 535.956089,724 534.281632,724 C532.607175,724 531.019829,724.658489 529.838999,725.839897 C528.648489,727.030988 528,728.609425 528,730.2847 C528,731.959974 528.658168,733.538412 529.838999,734.729503 C531.029508,735.920594 532.607175,736.5694 534.281632,736.5694 C535.694757,736.5694 537.04013,736.0949 538.143529,735.233054 L541.763453,738.796643 C541.908637,738.932214 542.092537,739 542.276437,739 C542.460336,739 542.653915,738.932214 542.799099,738.786959 C543.07011,738.506133 543.07011,738.041317 542.779742,737.760491 Z M530.864966,733.703034 C529.955146,732.79277 529.451841,731.572628 529.451841,730.2847 C529.451841,728.996772 529.955146,727.77663 530.864966,726.866365 C531.774787,725.956101 532.994333,725.45255 534.281632,725.45255 C535.568931,725.45255 536.788478,725.956101 537.698298,726.866365 C538.608118,727.77663 539.111423,728.996772 539.111423,730.2847 C539.111423,731.572628 538.608118,732.79277 537.698298,733.703034 C536.788478,734.613299 535.568931,735.11685 534.281632,735.11685 C532.984654,735.11685 531.774787,734.613299 530.864966,733.703034 Z" id="search-white"></path>
        </g>
    </g>
</svg>